<svg xmlns="http://www.w3.org/2000/svg" width="643.03" height="621.1" viewBox="0 0 643.03 621.1">
  <defs>
    <style>
      .a, .j {
        fill: none;
      }

      .a, .c, .j {
        stroke: #97f8ff;
      }

      .a, .c {
        stroke-linecap: round;
        stroke-width: 1.18px;
      }

      .b, .d, .e, .g, .h, .i {
        isolation: isolate;
        font-family: Tahoma;
      }

      .b {
        font-size: 23.49px;
      }

      .b, .c, .d, .e, .f, .g, .h, .i {
        fill: #97f8ff;
      }

      .c {
        fill-opacity: 0.08;
      }

      .c {
        fill-opacity: 0.08;
        transition: 0.4s;
      } 

      .c:hover {
        fill-opacity: 0.20;
        cursor: pointer;
      }     

      .d {
        font-size: 23.49px;
      }

      .e {
        font-size: 23.21px;
      }

      .g {
        font-size: 22.57px;
      }

      .h {
        font-size: 23.4px;
      }

      .i {
        font-size: 34.05px;
      }

      .j {
        stroke-miterlimit: 10;
      }
    </style>
  </defs>
  <title>icons2</title>
  <g>
    <path class="a" d="M99.41,233.85h24.45A2.3,2.3,0,0,1,126,236v15.59H98.23c-1.07,0-1.07,0-1.07-1.07V236A2.4,2.4,0,0,1,99.41,233.85Z" transform="translate(-3.48 -14.34)"/>
    <rect class="a" x="95.92" y="221.64" width="24.23" height="14.09"/>
    <path class="a" d="M92.68,251.57h37.9v2.14c0,1.07,0,1.07-1.07,1.07H94a1,1,0,0,1-1.07-1.07l-0.21-2.14h0Z" transform="translate(-3.48 -14.34)"/>
    <rect class="a" x="102.65" y="237.23" width="9.61" height="1.39"/>
    <path class="a" d="M100.47,212.71h22.21c2.14,0,3.31,1.07,3.31,5.55v7.79c0,2.14-1.07,4.48-3.31,4.48h-7.79c-1.07,0-1.07-5.55-3.31-5.55s-2.24,5.55-3.31,5.55h-7.79c-2.14,0-3.31-2.14-3.31-4.48v-7.69C97.16,213.78,98.34,212.71,100.47,212.71Z" transform="translate(-3.48 -14.34)"/>
    <circle class="a" cx="101.47" cy="207.23" r="3.31"/>
    <circle class="a" cx="114.82" cy="207.23" r="3.31"/>
    <circle class="a" cx="108.2" cy="208.3" r="23.38"/>
    <text class="b" transform="translate(73.98 291.52)">PC VR</text>
    <circle id="pc" class="c" cx="108.31" cy="261.75" r="107.72"/>
  </g>
  <g>
    <path class="a" d="M187.95,488.09c5.55,0,8.86-1.07,12.17-4.49l-22.21-27.77c-4.38,3.31-7.8,7.8-7.8,14.52A18.21,18.21,0,0,0,182.29,487,13.32,13.32,0,0,0,187.95,488.09Z" transform="translate(-3.48 -14.34)"/>
    <circle class="a" cx="192.15" cy="450.36" r="3.31"/>
    <line class="a" x1="190.02" y1="452.6" x2="185.64" y2="456.02"/>
    <path class="a" d="M191.26,459.25a6.22,6.22,0,0,1,5.66-3.31c5.55,0,8.86,3.31,8.86,7.8a8.28,8.28,0,0,1-5.55,7.8" transform="translate(-3.48 -14.34)"/>
    <path class="a" d="M187.95,454.66a12.05,12.05,0,0,1,9-3.31c7.8,0,13.35,5.55,13.35,12.28,0,4.49-3.31,8.86-6.73,11.11" transform="translate(-3.48 -14.34)"/>
    <path class="a" d="M185.17,451.46c2.56-2.14,5.34-4.16,11.64-4.38s9.72,1.5,14.1,6.09c3.74,4.27,4.7,12,3.2,15.16-2,4.27-4,6.51-8.44,9.82" transform="translate(-3.48 -14.34)"/>
    <path class="a" d="M175.77,461.39a16.5,16.5,0,0,0-2.24,7.8c0,5.55,1.07,7.8,1.07,7.8" transform="translate(-3.48 -14.34)"/>
    <polyline class="a" points="184.47 473.74 190.02 492.54 174.43 492.54 178.91 472.57"/>
    <text class="d" transform="translate(118.65 530.25)">Radiolocation</text>
    <text class="d" transform="translate(149.39 560.15)">System</text>
    <circle id="radiolocation" class="c" cx="188.99" cy="512.76" r="107.75"/>
  </g>
  <g>
    <path class="a" d="M312.6,82.46h21.84c2.11,0,3.27,1.06,3.27,5.49v8.76c0,2.22-1.06,4.33-3.27,4.33h-7.7c-1.06-1.06-1.06-5.49-3.27-5.49s-2.22,4.33-3.27,5.49h-7.7c-2.22,0-3.27-2.22-3.27-4.33V87.95C309.33,83.52,310.38,82.46,312.6,82.46Z" transform="translate(-3.48 -14.34)"/>
    <circle class="a" cx="313.55" cy="76.88" r="3.27"/>
    <circle class="a" cx="326.63" cy="76.88" r="3.27"/>
    <circle class="a" cx="320.09" cy="75.82" r="23.11"/>
    <path class="a" d="M307.11,58.4h34a2.23,2.23,0,0,1,2.22,2.22V74.44a2.23,2.23,0,0,1-2.22,2.22h-34a2.23,2.23,0,0,1-2.22-2.22V60.62A2.16,2.16,0,0,1,307.11,58.4Z" transform="translate(-3.48 -14.34)"/>
    <rect class="a" x="305.84" y="46.17" width="27.54" height="13.82"/>
    <line class="a" x1="303.63" y1="47.33" x2="303.63" y2="48.39"/>
    <line class="a" x1="303.63" y1="49.44" x2="303.63" y2="51.76"/>
    <circle class="a" cx="336.55" cy="53.87" r="1.06"/>
    <text class="e" transform="translate(268.68 139.72)">Moble VR</text>
    <circle id="mobile" class="c" cx="322.3" cy="106.95" r="106.36"/>
  </g>
  <path class="f" d="M288.65,293.3v36.11a9.25,9.25,0,0,0,.92,4.21c0.31,1.23,2.36,2.36,2.36,2.36l15.39,8.72a3.88,3.88,0,0,0,4.21-.31c2.15-.92,2.15-3.59,2.15-3.59V308a8.12,8.12,0,0,1,.31-2.15,3.62,3.62,0,0,1,1.85-1.54l24.62-15.08a1.55,1.55,0,0,1,1.54-.31,1.8,1.8,0,0,1,1.23.31l8.72,6.05,0.62,0.62v6.05a4.12,4.12,0,0,1-.31,1.54c-0.31.92-1.54,1.54-1.85,1.85l-23,13.64a3.79,3.79,0,0,1-1.54.62c-0.31.31-1.54-.62-1.85-0.62a13.38,13.38,0,0,0-2.15-1.23,1.35,1.35,0,0,0-1.85,0l-0.62.31c-0.92.62-.92,0.62-0.92,2.15V325a3.81,3.81,0,0,0,.62.92l4.21,2.15a4.57,4.57,0,0,0,2.36.62,11.42,11.42,0,0,0,2.36-.92l21.65-12.62a1.71,1.71,0,0,1,2.15,0,3.79,3.79,0,0,1,.62,2.15v8.41a10.31,10.31,0,0,1-.31,2.36,2.52,2.52,0,0,1-1.54,1.54l-23.49,14.46a3.79,3.79,0,0,1-1.54.62,1.13,1.13,0,0,1-.92-0.31,28.12,28.12,0,0,1-3-1.54,1.49,1.49,0,0,0-1.85.31l-0.82.41c-0.31.31-.31,0.31-0.31,1.54v4.82a1.37,1.37,0,0,0,.92,1.23l3.9,2.15a16.79,16.79,0,0,0,2.67.31c1.54-.31,2.15-0.62,2.36-0.92l28.62-17.13s2.15-1.23,2.67-2.36a6.37,6.37,0,0,0,.92-3v-19.9a1.7,1.7,0,0,0-.92-1.23,2.33,2.33,0,0,0-1.23-.31,1.29,1.29,0,0,1-1.23-.92,2.09,2.09,0,0,1,.92-1.23,3.26,3.26,0,0,0,1.85-1.23,5,5,0,0,0,.62-2.36V293.3a2.86,2.86,0,0,0-.92-1.85c-0.62-.62-14.77-10.26-15.08-10.26s-1.85-1.23-3.28-1.23a9.67,9.67,0,0,0-3.59,1.23l-29.44,17.44a6,6,0,0,0-2.15,2.36,6.33,6.33,0,0,0-.62,3.59v27.08s0,1.85-.62,2.36a3.25,3.25,0,0,1-1.85,0l-4.82-2.67a4.43,4.43,0,0,1-1.85-2.15,6.68,6.68,0,0,1-.92-3.59V297.31a4.41,4.41,0,0,1,.62-2.15,9.11,9.11,0,0,1,.92-1.23l31.29-18.67s1.54-.62,1.54-1.85a1.94,1.94,0,0,0-.92-2.15l-3.28-1.54a1.14,1.14,0,0,0-.92-0.62,2.35,2.35,0,0,0-1.54.62l-32.52,19a5.13,5.13,0,0,0-1.54,1.85,6.54,6.54,0,0,0-.62,2.77h0Z" transform="translate(-3.48 -14.34)"/>
  <text class="g" transform="translate(261.94 380.32)">Appications</text>
  <g>
    <rect class="a" x="513.45" y="179.78" width="38.39" height="26.16"/>
    <rect class="a" x="515.57" y="181.91" width="33.18" height="20.21"/>
    <line class="a" x1="516.64" y1="206.26" x2="516.64" y2="209.56"/>
    <line class="a" x1="547.69" y1="206.26" x2="547.69" y2="208.5"/>
    <line class="a" x1="548.75" y1="204.03" x2="546.52" y2="204.03"/>
    <circle class="a" cx="532.16" cy="211.79" r="25.42"/>
    <polyline class="a" points="527.8 237 527.8 225.09 536.52 225.09 536.52 236.57"/>
    <path class="a" d="M544.47,228.37c0-.43-1.49-2.76-8.72-2.66-6.06,0-8.83,2.13-8.83,2.76" transform="translate(-3.48 -14.34)"/>
    <path class="a" d="M542.67,231c0-.32-1.17-2.23-7-2.13-4.89,0-7.13,1.7-7.13,2.23" transform="translate(-3.48 -14.34)"/>
    <path class="a" d="M540.54,233.05c0-.21-0.85-1.49-4.89-1.49-3.3,0-4.89,1.17-4.89,1.49" transform="translate(-3.48 -14.34)"/>
    <text class="h" transform="translate(480.35 266.6)">Household</text>
    <text class="h" transform="translate(480.16 297.62)">Mutimedia</text>
    <text class="h" transform="translate(492.66 326.34)">Systems</text>
    <circle id="household" class="c" cx="535.35" cy="262.47" r="107.09"/>
  </g>
  <g>
    <circle class="j" cx="455.11" cy="481.71" r="26.27"/>
    <path class="j" d="M479.64,472.73" transform="translate(-3.48 -14.34)"/>
    <rect class="j" x="445.86" y="469.03" width="20.03" height="20.03"/>
    <rect class="j" x="449.82" y="473.25" width="12.29" height="12.29"/>
    <circle class="j" cx="449.18" cy="440.26" r="2.78"/>
    <circle class="j" cx="484.36" cy="457.18" r="2.73"/>
    <circle class="j" cx="473.42" cy="438.55" r="2.73"/>
    <circle class="j" cx="461.67" cy="443.16" r="2.73"/>
    <circle class="j" cx="425.76" cy="463.83" r="2.78"/>
    <circle class="j" cx="433.62" cy="448.8" r="2.78"/>
    <polyline class="j" points="425.53 466.61 425.53 473.7 433.62 473.7 433.62 485.99 445.86 485.99"/>
    <polyline class="j" points="433.62 451.58 433.62 456.9 437.35 456.9 437.35 479.4 445.86 479.4"/>
    <polyline class="j" points="448.96 443.03 448.96 452.07 441.28 452.07 441.28 471.34 445.86 471.34"/>
    <polyline class="j" points="461.67 445.9 461.67 452.42 470.69 452.42 470.69 473.94 465.89 473.94"/>
    <polyline class="j" points="473.42 441.28 473.42 450.46 476.15 450.46 476.15 480.01 466.18 480.01"/>
    <polyline class="j" points="484.36 459.92 484.36 485.19 474.45 485.19 474.45 485.19 466.18 485.19"/>
    <line class="j" x1="448.8" y1="465.05" x2="448.8" y2="468.96"/>
    <line class="j" x1="453.42" y1="465.05" x2="453.42" y2="468.96"/>
    <line class="j" x1="458.94" y1="465.05" x2="458.94" y2="469.14"/>
    <line class="j" x1="462.82" y1="465.05" x2="462.82" y2="468.96"/>
    <line class="j" x1="448.96" y1="489.43" x2="448.96" y2="493.35"/>
    <line class="j" x1="453.58" y1="489.43" x2="453.58" y2="493.35"/>
    <line class="j" x1="459.1" y1="489.43" x2="459.1" y2="493.53"/>
    <line class="j" x1="462.98" y1="489.43" x2="462.98" y2="493.35"/>
    <text class="i" transform="translate(437.35 552.33)">AI</text>
    <circle id="ai" class="c" cx="455.97" cy="512.42" r="106.79"/>  
  </g>
</svg>
