<?xml version="1.0" encoding="utf-8"?>
<!-- Generator: Adobe Illustrator 19.2.1, SVG Export Plug-In . SVG Version: 6.00 Build 0)  -->
<svg version="1.1" id="Layer_1" xmlns="http://www.w3.org/2000/svg" xmlns:xlink="http://www.w3.org/1999/xlink" x="0px" y="0px"
	 viewBox="0 0 649.2 650.8" style="enable-background:new 0 0 649.2 650.8;" xml:space="preserve">
<style type="text/css">
	.st0{fill: none; stroke:#97F8FF;stroke-width:1.18;stroke-linecap:round;}
	.st1{fill:none;stroke:#97F8FF;stroke-width:1.18;stroke-linecap:round;}
	.st2{enable-background:new    ;}
	.st3{fill:#97F8FF;}
	.st4{font-family:'Tahoma';}
	.st5{font-size:22px;}
	.butt{fill:#97F8FF;fill-opacity:8.000000e-002;stroke:#97F8FF;stroke-width:1.18;stroke-linecap:round;}
    .butt:hover{fill-opacity:0.2; cursor: pointer;}
</style>
<title>icons</title>
<g>
	<path class="st0" d="M223.6,500h18.8c1,0,5.2-3.1,5.2-8.3c0-4.2-3.1-8.3-7.3-7.3c0.1-4.5-3.4-8.2-7.9-8.3c-0.1,0-0.1,0-0.2,0h-0.2
		c-4.3,0.4-7.5,4-7.3,8.3c0-1-1.6-3.2-4.8-1.5c-3.4,2-1.4,5.7-0.4,6.7c-2.1,0-4.2,2-4.2,5.2C216.3,501,222.6,500,223.6,500z"/>
	<circle class="st0" cx="231.6" cy="492.3" r="20.8"/>
	<line class="st1" x1="227.8" y1="521.9" x2="227.8" y2="505.3"/>
	<line class="st1" x1="226.7" y1="508.3" x2="227.8" y2="505.3"/>
	<line class="st1" x1="228.8" y1="508.3" x2="227.8" y2="505.3"/>
	<line class="st1" x1="236.1" y1="505.3" x2="236.1" y2="521.9"/>
	<line class="st1" x1="235.1" y1="517.8" x2="236.1" y2="521.9"/>
	<line class="st1" x1="237.1" y1="517.8" x2="236.1" y2="521.9"/>
    <text transform="matrix(1 0 0 1 172.32 549.25)" class="st3 st4 st5">Multy-gigabit</text>
	<text transform="matrix(1 0 0 1 204.6 580.52)" class="st3 st4 st5">Cloud</text>
    <text transform="matrix(1 0 0 1 183.56 608.79)" class="st3 st4 st5">Streaming</text>
	<circle class="butt" cx="232" cy="549.3" r="101"/>
</g>
<g>
	<rect x="81.2" y="349.8" class="st0" width="36.1" height="24.6"/>
	<rect x="83.2" y="351.8" class="st0" width="31.2" height="19"/>
	<line class="st1" x1="84.2" y1="374.7" x2="84.2" y2="377.8"/>
	<line class="st1" x1="113.4" y1="374.7" x2="113.4" y2="376.8"/>
	<line class="st1" x1="114.4" y1="372.6" x2="112.3" y2="372.6"/>
	<circle class="st0" cx="98.8" cy="379.9" r="23.9"/>
	<polyline class="st0" points="94.7,403.6 94.7,392.4 102.9,392.4 102.9,403.2 	"/>
	<path class="st0" d="M107.1,382c0-0.4-1.4-2.6-8.2-2.5c-5.7,0-8.3,2-8.3,2.6"/>
	<path class="st0" d="M105.4,384.5c0-0.3-1.1-2.1-6.6-2c-4.6,0-6.7,1.6-6.7,2.1"/>
	<path class="st0" d="M103.4,386.4c0-0.2-0.8-1.4-4.6-1.4c-3.1,0-4.6,1.1-4.6,1.4"/>
		<text transform="matrix(1 0 0 1 60.69 440.12)" class="st3 st4 st5">Wireless</text>
		<text transform="matrix(1 0 0 1 65.33 468.32)" class="st3 st4 st5">Display</text>
	<circle class="butt" cx="101.8" cy="417.9" r="100.7"/>
</g>
<g>
	<path class="st0" d="M535.4,365.1h19.7c3.1,0,3.1,2,3.1,6.3v7.3c0,2-1,4.1-3.1,4.1h-6.3c-1,0-1-5.2-3.1-5.2s-2,5.2-3.1,5.2h-8.3
		c-2,0-2-2-2-4.1v-7.3C532.3,367.2,532.3,365.1,535.4,365.1z"/>
	<circle class="st0" cx="539.6" cy="374.4" r="3.1"/>
	<circle class="st0" cx="552" cy="374.4" r="3.1"/>
	<circle class="st0" cx="545.9" cy="377.5" r="21.9"/>
	<path class="st0" d="M550,394.2c-2-1-4.2-2-4.2-4.1s3.2-4.1,6.3-4.1s5.2,2,5.2,4.1s-1,3.1-3.1,4.1v14.6H550V394.2L550,394.2z"/>
	<line class="st1" x1="552" y1="395.2" x2="552" y2="397.3"/>
	<ellipse class="st0" cx="552" cy="389" rx="3.1" ry="2"/>
	<path class="st0" d="M536.5,394.2c-2-1-3.1-2-3.1-4.1s2-4.1,5.2-4.1s5.2,2,5.2,4.1s-1,3.1-3.1,4.1v14.6h-4.2L536.5,394.2
		L536.5,394.2L536.5,394.2z"/>
	<line class="st1" x1="538.6" y1="395.2" x2="538.6" y2="397.3"/>
	<ellipse class="st0" cx="538.6" cy="389" rx="3.1" ry="2"/>
	<text transform="matrix(1 0 0 1 500.96 454.24)" class="st3 st4 st5">Mixed VR</text>
	<circle class="butt" cx="547.8" cy="417.9" r="100.8"/>
</g>
<g>
	<path class="st0" d="M401,500.6l1,3.1l2,2c0.5,0.6,1.4,0.6,1.9,0.1c0,0,0.1-0.1,0.1-0.1l0,0c0,0,0,4.2,3.1,4.2
		c4.2,0,3.1-4.2,3.1-4.2l9.3,1c0,0,1,3.1,3.1,3.1c1.7,0,3-1.3,3.1-2.9v-0.2h3.1c0-0.6,0.4-1,1-1v-6.3c-0.8-0.1-1.5-0.4-2-1
		c-1.7-0.8-3.4-1.5-5.2-2h-1c-1-1-4.2-4.2-6.3-5.2c-2.3-0.8-4.8-1.2-7.3-1c-1.9,1.1-3.7,2.5-5.2,4.2c-1,0.5-2,0.9-3.1,1v3.1
		L401,500.6z"/>
	<line class="st1" x1="404" y1="497.6" x2="403" y2="499.6"/>
	<line class="st1" x1="430" y1="500.6" x2="430" y2="502.7"/>
	<path class="st0" d="M398.8,493.3c-2.6,0.3-4.3,7.3-2,9.3"/>
	<line class="st1" x1="393.6" y1="533" x2="402" y2="533"/>
	<line class="st1" x1="406.1" y1="533" x2="414.4" y2="533"/>
	<line class="st1" x1="418.6" y1="533" x2="428" y2="533"/>
	<line class="st1" x1="432.2" y1="533" x2="440.5" y2="533"/>
	<path class="st0" d="M396.3,490.6c-4.1,0.4-6.4,11-3.1,14.2"/>
	<path class="st0" d="M393.2,487.5c-5.1,0.6-8.1,14-4,18"/>
	<path class="st0" d="M433.6,494c2.8,0.5,4.2,7.5,1.7,9.4"/>
	<path class="st0" d="M436.7,491.4c4.3,0.7,6.3,11.4,2.6,14.3"/>
	<path class="st0" d="M440,488.5c5.5,0.9,8,14.4,3.4,18.1"/>
	<path class="st0" d="M411.7,488.4c1-2.7,8.2-2.5,9.6,0.3"/>
	<path class="st0" d="M409.8,484.9c1.5-4.1,12.5-3.9,14.6,0.4"/>
	<path class="st0" d="M407.6,481.1c2-5.2,15.7-4.9,18.5,0.5"/>
	<path class="st0" d="M411.6,512.7c0.9,2.8,8.1,3,9.6,0.3"/>
	<path class="st0" d="M409.6,516.3c1.4,4.3,12.3,4.7,14.6,0.4"/>
	<path class="st0" d="M407.2,520c1.7,5.4,15.5,5.9,18.5,0.5"/>
	<text transform="matrix(1 0 0 1 380.8 565.69)" class="st3 st4 st5">AI Data</text>
	<text transform="matrix(1 0 0 1 372.14 591.98)" class="st3 st4 st5">Exchange</text>
	<circle class="butt" cx="416.6" cy="549.1" r="101"/>
</g>
<g>
	<rect x="535.4" y="189.1" class="st0" width="22.8" height="4.8"/>
	<rect x="535.4" y="181.8" class="st0" width="22.8" height="4.8"/>
	<rect x="535.4" y="174.5" class="st0" width="22.8" height="4.8"/>
	<line class="st1" x1="537.4" y1="177" x2="539.5" y2="177"/>
	<line class="st1" x1="541.5" y1="177" x2="556.1" y2="177"/>
	<line class="st1" x1="537.4" y1="184.3" x2="539.5" y2="184.3"/>
	<line class="st1" x1="541.5" y1="184.3" x2="556.1" y2="184.3"/>
	<line class="st1" x1="537.4" y1="191.4" x2="539.5" y2="191.4"/>
	<line class="st1" x1="541.5" y1="191.4" x2="556.1" y2="191.4"/>
	<circle class="st0" cx="545.7" cy="181.8" r="20.7"/>
	<line class="st1" x1="542.5" y1="170.4" x2="542.5" y2="153.8"/>
	<line class="st1" x1="540.5" y1="157.9" x2="542.5" y2="153.8"/>
	<line class="st1" x1="543.7" y1="157.9" x2="542.5" y2="153.8"/>
	<line class="st1" x1="550.8" y1="153.8" x2="550.8" y2="170.4"/>
	<line class="st1" x1="548.8" y1="167.2" x2="550.8" y2="170.4"/>
	<line class="st1" x1="551.9" y1="167.2" x2="550.8" y2="170.4"/>
	<text transform="matrix(1 0 0 1 506.97 245.07)" class="st3 st4 st5">Wireless</text>
	<text transform="matrix(1 0 0 1 509.49 273.22)" class="st3 st4 st5">Docking</text>
	<circle class="butt" cx="547.8" cy="233.6" r="100.6"/>
</g>
<g>
	<path class="st0" d="M405.3,51.8h22.9c1.1,0.1,1.9,0.9,2,2v14.6h-26c-1,0-1,0-1-1V53.8C403.3,52.7,404.2,51.9,405.3,51.8z"/>
	<rect x="405.3" y="53.8" class="st0" width="22.7" height="13.2"/>
	<path class="st0" d="M399,68.4h35.5v2c0,1,0,1-1,1h-33.3c-0.6,0-1-0.4-1-1L399,68.4L399,68.4L399,68.4z"/>
	<rect x="411.6" y="68.4" class="st0" width="9" height="1.3"/>
	<path class="st0" d="M406.3,32h20.8c2,0,3.1,1,3.1,5.2v7.3c0,2-1,4.2-3.1,4.2h-7.3c-1,0-1-5.2-3.1-5.2s-2.1,5.2-3.1,5.2h-7.3
		c-2,0-3.1-2-3.1-4.2v-7.2C403.2,33,404.3,32,406.3,32z"/>
	<circle class="st0" cx="410.5" cy="40.3" r="3.1"/>
	<circle class="st0" cx="423" cy="40.3" r="3.1"/>
	<circle class="st0" cx="416.8" cy="41.3" r="21.9"/>
	<text transform="matrix(1 0 0 1 384.75 119.26)" class="st3 st4 st5">PC VR</text>
	<circle class="butt" cx="416.9" cy="102.9" r="100.9"/>
</g>
<g>
	<path class="st0" d="M228,54.4c5.2,0,8.3-1,11.4-4.2l-20.8-26c-4.1,3.1-7.3,7.3-7.3,13.6c0.2,7.1,4.8,13.3,11.4,15.6
		C224.5,54.1,226.2,54.5,228,54.4z"/>
	<circle class="st0" cx="235.2" cy="32.5" r="3.1"/>
	<line class="st1" x1="233.2" y1="34.6" x2="229.1" y2="37.8"/>
	<path class="st0" d="M231.1,27.4c1-1.9,3.1-3.2,5.3-3.1c5.2,0,8.3,3.1,8.3,7.3c0,3.3-2.1,6.2-5.2,7.3"/>
	<path class="st0" d="M228,23.1c2.2-2.1,5.3-3.3,8.4-3.1c7.3,0,12.5,5.2,12.5,11.5c0,4.2-3.1,8.3-6.3,10.4"/>
	<path class="st0" d="M225.4,20.1c2.4-2,5-3.9,10.9-4.1s9.1,1.4,13.2,5.7c3.5,4,4.4,11.2,3,14.2c-1.9,4-3.7,6.1-7.9,9.2"/>
	<path class="st0" d="M216.6,29.4c-1.3,2.2-2,4.7-2.1,7.3c0,5.2,1,7.3,1,7.3"/>
	<polyline class="st0" points="228,54.4 233.2,72 218.6,72 222.8,53.3 	"/>
	<text transform="matrix(1 0 0 1 166.37 107.31)" class="st3 st4 st5">Radiolocation</text>
	<text transform="matrix(1 0 0 1 195.16 135.31)" class="st3 st4 st5">Sustem</text>
	<circle class="butt" cx="233.2" cy="101.5" r="100.9"/>
</g>
<g>
	<path class="st0" d="M88.9,196.5h20.7c2,0,3.1,1,3.1,5.2v8.3c0,2.1-1,4.1-3.1,4.1h-7.3c-1-1-1-5.2-3.1-5.2s-2.1,4.1-3.1,5.2h-7.3
		c-2.1,0-3.1-2.1-3.1-4.1v-8.3C85.8,197.5,86.8,196.5,88.9,196.5z"/>
	<circle class="st0" cx="93.1" cy="204.8" r="3.1"/>
	<circle class="st0" cx="105.5" cy="204.8" r="3.1"/>
	<circle class="st0" cx="99.3" cy="203.8" r="21.9"/>
	<path class="st0" d="M83.7,173.7h32.2c1.2,0,2.1,1,2.1,2.1v13.1c0,1.2-1,2.1-2.1,2.1H83.7c-1.2,0-2.1-1-2.1-2.1v-13.1
		C81.6,174.6,82.5,173.7,83.7,173.7z"/>
	<rect x="85.8" y="175.7" class="st0" width="26.1" height="13.1"/>
	<line class="st1" x1="83.7" y1="176.8" x2="83.7" y2="177.8"/>
	<line class="st1" x1="83.7" y1="178.8" x2="83.7" y2="181"/>
	<circle class="st0" cx="114.9" cy="183" r="1"/>
	<text transform="matrix(1 0 0 1 60.3 264.36)" class="st3 st4 st5">Gear VR</text>
	<circle class="butt" cx="101.4" cy="233.3" r="100.8"/>
</g>
</svg>
