<?xml version="1.0" encoding="UTF-8"?>
<!DOCTYPE svg PUBLIC "-//W3C//DTD SVG 1.1//EN" "http://www.w3.org/Graphics/SVG/1.1/DTD/svg11.dtd">
<!-- Creator: CorelDRAW X8 -->
<svg xmlns="http://www.w3.org/2000/svg" xml:space="preserve" width="700px" height="550px" version="1.1" style="shape-rendering:geometricPrecision; text-rendering:geometricPrecision; image-rendering:optimizeQuality; fill-rule:evenodd; clip-rule:evenodd"
viewBox="0 0 700 550"
 xmlns:xlink="http://www.w3.org/1999/xlink">
 <defs>
  <style type="text/css">
   <![CDATA[
    .str0 {stroke:#CBE7E7;stroke-width:1.1811}
    .str1 {stroke:#CBE7E7;stroke-width:1.1811;stroke-linecap:round}
    .fil0 {fill:none}
    .fil1 {fill:#7BC8C5}
    .fnt0 {font-weight:normal;font-size:25.376px;font-family:'ISOCPEUR'}
   ]]>
  </style>
 </defs>
 <g id="Слой_x0020_2">
  <metadata id="CorelCorpID_0Corel-Layer"/>
  <path class="fil0 str0" d="M430 42l22 0c1,0 2,1 2,2l0 13c0,1 0,1 0,1l-25 0c-1,0 -1,0 -1,-1l0 -13c0,-1 1,-2 2,-2z"/>
  <rect class="fil0 str0" x="430" y="44" width="21.7886" height="12.7041"/>
  <path class="fil0 str0" d="M424 58l34 0 0 2c0,1 0,1 -1,1l-32 0c0,0 -1,0 -1,-1l0 -2z"/>
  <rect class="fil0 str0" x="436" y="58" width="8.62003" height="1.22965"/>
  <path class="fil0 str0" d="M431 23l10 0 10 0c2,0 3,1 3,5 0,2 0,6 0,7 0,2 -1,4 -3,4 -2,0 -5,0 -7,0 -1,0 -1,-5 -3,-5 -2,0 -2,5 -3,5 -2,0 -6,0 -7,0 -2,0 -3,-2 -3,-4 0,-1 0,-5 0,-7 0,-4 1,-5 3,-5z"/>
  <circle class="fil0 str0" cx="435" cy="31" r="3"/>
  <circle class="fil0 str0" cx="447" cy="31" r="3"/>
  <circle class="fil0 str0" cx="441" cy="32" r="21"/>
  <path class="fil0 str0" d="M108 165l10 0 10 0c2,0 3,1 3,5 0,2 0,6 0,8 0,2 -1,4 -3,4 -2,0 -5,0 -7,0 -1,-1 -1,-5 -3,-5 -2,0 -2,4 -3,5 -2,0 -6,0 -7,0 -2,0 -3,-2 -3,-4 0,-1 0,-6 0,-8 0,-4 1,-5 3,-5z"/>
  <circle class="fil0 str0" cx="112" cy="173" r="3"/>
  <circle class="fil0 str0" cx="124" cy="173" r="3"/>
  <circle class="fil0 str0" cx="118" cy="172" r="21"/>
  <rect class="fil0 str0" x="101" y="143" width="34.9423" height="16.5955" rx="2" ry="2"/>
  <rect class="fil0 str0" x="105" y="146" width="25.0973" height="12.5656"/>
  <line class="fil0 str0" x1="103" y1="146" x2="103" y2= "147" />
  <line class="fil0 str0" x1="103" y1="148" x2="103" y2= "150" />
  <circle class="fil0 str0" cx="133" cy="152" r="1"/>
  <path class="fil0 str1" d="M568 373l1 3c0,0 1,1 2,2 1,1 2,0 2,0 0,0 0,4 3,4 4,0 3,-4 3,-4l9 1c0,0 1,3 3,3 3,0 3,-3 3,-3 0,0 2,0 3,0 0,-1 1,-1 1,-1l0 -6c0,0 -1,0 -2,-1 -2,-1 -5,-2 -5,-2 0,0 -1,0 -1,0 -1,-1 -4,-4 -6,-5 -3,-1 -4,-1 -7,-1 -2,1 -4,3 -5,4 -2,1 -3,1 -3,1l0 3 -1 2z"/>
  <line class="fil0 str1" x1="571" y1="370" x2="570" y2= "372" />
  <line class="fil0 str1" x1="596" y1="373" x2="596" y2= "375" />
  <path class="fil0 str1" d="M566 366c-3,2 -3,6 -2,9"/>
  <path class="fil0 str1" d="M563 363c-4,4 -5,9 -2,14 0,0 0,0 0,0m0 0c0,0 0,0 0,0"/>
  <path class="fil0 str1" d="M560 361c-4,5 -5,12 -2,17 0,1 1,1 1,2"/>
  <path class="fil0 str1" d="M600 369c3,2 4,5 2,8"/>
  <path class="fil0 str1" d="M603 366c4,3 5,9 3,13 -1,1 -1,1 -1,1m0 0c0,0 0,0 1,-1"/>
  <path class="fil0 str1" d="M606 364c4,4 5,11 3,17 -1,0 -1,1 -1,1"/>
  <path class="fil0 str1" d="M577 359c2,-2 6,-2 9,0"/>
  <path class="fil0 str1" d="M575 356c4,-3 9,-3 13,0 1,0 1,0 1,0m0 0c0,0 0,0 -1,0"/>
  <path class="fil0 str1" d="M573 353c5,-4 12,-4 17,0 1,0 1,1 2,1"/>
  <path class="fil0 str1" d="M576 387c3,2 6,3 9,1"/>
  <path class="fil0 str1" d="M574 391c4,3 10,3 14,-1 0,0 0,0 0,0m0 0c0,0 0,0 0,0"/>
  <path class="fil0 str1" d="M572 394c6,3 13,3 18,-1 0,0 0,-1 1,-1"/>
  <line class="fil0 str1" x1="561" y1="405" x2="569" y2= "405" />
  <line class="fil0 str1" x1="573" y1="405" x2="581" y2= "405" />
  <line class="fil0 str1" x1="585" y1="405" x2="594" y2= "405" />
  <line class="fil0 str1" x1="598" y1="405" x2="606" y2= "405" />
  <rect class="fil0 str1" x="252" y="225" width="34.7374" height="23.6846"/>
  <rect class="fil0 str1" x="254" y="227" width="29.9699" height="18.3152"/>
  <line class="fil0 str1" x1="255" y1="249" x2="255" y2= "252" />
  <line class="fil0 str1" x1="283" y1="249" x2="283" y2= "251" />
  <line class="fil0 str1" x1="284" y1="247" x2="282" y2= "247" />
  <circle class="fil0 str1" cx="269" cy="254" r="23"/>
  <polyline class="fil0 str1" points="266,276 266,266 274,266 274,275 "/>
  <path class="fil0 str1" d="M273 261c-2,-1 -5,-2 -7,0"/>
  <path class="fil0 str1" d="M275 259c-3,-3 -8,-3 -11,-1 0,0 -1,0 -1,1m0 0c0,-1 1,-1 1,-1"/>
  <path class="fil0 str1" d="M277 256c-4,-3 -10,-3 -15,0 0,0 -1,0 -1,1"/>
  <path class="fil0 str1" d="M280 67c5,0 8,-1 11,-4l-20 -25c-4,3 -7,7 -7,13 0,7 5,13 11,15 2,1 4,1 5,1z"/>
  <circle class="fil0 str0" cx="287" cy="46" r="3"/>
  <line class="fil0 str1" x1="285" y1="48" x2="281" y2= "51" />
  <path class="fil0 str1" d="M283 41c1,-2 3,-3 5,-3 5,0 8,3 8,7 0,3 -2,6 -5,7"/>
  <path class="fil0 str1" d="M280 37c2,-2 5,-3 8,-3 7,0 12,5 12,11 0,4 -3,8 -6,10"/>
  <path class="fil0 str1" d="M278 35c3,-3 6,-5 10,-5 9,0 15,7 15,15 0,6 -3,10 -7,13"/>
  <path class="fil0 str1" d="M269 43c-1,2 -2,4 -2,7 0,5 1,7 1,7"/>
  <polyline class="fil0 str1" points="280,67 285,84 271,84 275,66 "/>
  <path class="fil0 str1" d="M137 380l18 0c1,0 5,-3 5,-8 0,-4 -3,-8 -7,-7 0,-5 -4,-8 -8,-8 -7,1 -7,7 -7,8 0,-1 -2,-3 -5,-2 -2,2 -1,6 0,7 -2,0 -4,2 -4,5 1,6 7,5 8,5z"/>
  <circle class="fil0 str0" cx="144" cy="371" r="20"/>
  <line class="fil0 str1" x1="141" y1="401" x2="141" y2= "385" />
  <line class="fil0 str1" x1="140" y1="388" x2="141" y2= "385" />
  <line class="fil0 str1" x1="142" y1="388" x2="141" y2= "385" />
  <line class="fil0 str1" x1="149" y1="385" x2="149" y2= "401" />
  <line class="fil0 str1" x1="148" y1="397" x2="149" y2= "401" />
  <line class="fil0 str1" x1="150" y1="397" x2="149" y2= "401" />
  <rect class="fil0 str0" x="515" y="213" width="22.0368" height="4.587"/>
  <rect class="fil0 str0" x="515" y="206" width="22.0368" height="4.587"/>
  <rect class="fil0 str0" x="515" y="199" width="22.0368" height="4.587"/>
  <line class="fil0 str0" x1="517" y1="202" x2="519" y2= "202" />
  <line class="fil0 str0" x1="521" y1="202" x2="535" y2= "202" />
  <line class="fil0 str0" x1="517" y1="209" x2="519" y2= "209" />
  <line class="fil0 str0" x1="521" y1="209" x2="535" y2= "209" />
  <line class="fil0 str0" x1="517" y1="215" x2="519" y2= "215" />
  <line class="fil0 str0" x1="521" y1="215" x2="535" y2= "215" />
  <circle class="fil0 str0" cx="525" cy="206" r="20"/>
  <line class="fil0 str1" x1="522" y1="195" x2="522" y2= "179" />
  <line class="fil0 str1" x1="520" y1="183" x2="522" y2= "179" />
  <line class="fil0 str1" x1="523" y1="183" x2="522" y2= "179" />
  <line class="fil0 str1" x1="530" y1="179" x2="530" y2= "195" />
  <line class="fil0 str1" x1="528" y1="192" x2="530" y2= "195" />
  <line class="fil0 str1" x1="531" y1="192" x2="530" y2= "195" />
  <circle class="fil0 str1" cx="282" cy="116" r="97"/>
  <circle class="fil0 str1" cx="444" cy="99" r="97"/>
  <circle class="fil0 str1" cx="527" cy="256" r="97"/>
  <path class="fil0 str0" d="M398 317l9 0 10 0c3,0 3,2 3,6 0,2 0,6 0,7 0,2 -1,4 -3,4 -1,0 -5,0 -6,0 -1,0 -1,-5 -3,-5 -2,0 -2,5 -3,5 -2,0 -6,0 -8,0 -2,0 -2,-2 -2,-4 0,-1 0,-5 0,-7 0,-4 0,-6 3,-6z"/>
  <circle class="fil0 str0" cx="402" cy="326" r="3"/>
  <circle class="fil0 str0" cx="414" cy="326" r="3"/>
  <circle class="fil0 str0" cx="408" cy="329" r="21"/>
  <path class="fil0 str1" d="M412 345c-2,-1 -4,-2 -4,-4 0,-2 3,-4 6,-4 3,0 5,2 5,4 0,2 -1,3 -3,4l0 14 -4 0 0 -14z"/>
  <line class="fil0 str1" x1="414" y1="346" x2="414" y2= "348" />
  <ellipse class="fil0 str1" cx="414" cy="340" rx="3" ry="2"/>
  <path class="fil0 str1" d="M399 345c-2,-1 -3,-2 -3,-4 0,-2 2,-4 5,-4 3,0 5,2 5,4 0,2 -1,3 -3,4l0 14 -4 0 0 -14z"/>
  <line class="fil0 str1" x1="401" y1="346" x2="401" y2= "348" />
  <ellipse class="fil0 str1" cx="401" cy="340" rx="3" ry="2"/>
  <circle class="fil0 str1" cx="406" cy="391" r="97"/>
  <circle class="fil0 str1" cx="120" cy="211" r="97"/>
  <circle class="fil0 str1" cx="580" cy="435" r="97"/>
  <circle class="fil0 str1" cx="272" cy="301" r="97"/>
  <circle class="fil0 str1" cx="146" cy="435" r="97"/>
  <text x="404" y="116"  class="fil1 str0 fnt0">PC VR</text>
  <text x="207" y="127"  class="fil1 str0 fnt0">RADIOLOCATION</text>
  <text x="244" y="158"  class="fil1 str0 fnt0">SUSTEM</text>
  <text x="483" y="267"  class="fil1 str0 fnt0">WIRELESS</text>
  <text x="490" y="298"  class="fil1 str0 fnt0">DOCKING</text>
  <text x="227" y="310"  class="fil1 str0 fnt0">WIRELESS</text>
  <text x="232" y="341"  class="fil1 str0 fnt0">DISPLAY</text>
  <text x="91" y="222"  class="fil1 str0 fnt0">GEAR</text>
  <text x="104" y="253"  class="fil1 str0 fnt0">VR</text>
  <text x="378" y="400"  class="fil1 str0 fnt0">MIXED</text>
  <text x="393" y="431"  class="fil1 str0 fnt0">VR</text>
  <text x="539" y="450"  class="fil1 str0 fnt0">AI DATA</text>
  <text x="530" y="481"  class="fil1 str0 fnt0">EXCHANGE</text>
  <text x="76" y="435"  class="fil1 str0 fnt0">MULTI-GIGABIT</text>
  <text x="118" y="466"  class="fil1 str0 fnt0">CLOUD</text>
  <text x="100" y="497"  class="fil1 str0 fnt0">SREAMING</text>
 </g>
</svg>
